<svg width="2003" height="966" viewBox="0 0 2003 966" fill="none" xmlns="http://www.w3.org/2000/svg">
<circle cx="483" cy="483" r="483" fill="url(#paint0_radial_506_10)"/>
<circle cx="483.5" cy="483.5" r="93" stroke="white" stroke-opacity="0.4" stroke-width="183"/>
<circle cx="483" cy="483" r="114" fill="url(#paint1_radial_506_10)"/>
<path d="M1147.31 599.6C1130.71 599.6 1114.61 597.4 1099.01 593C1083.61 588.4 1071.21 582.5 1061.81 575.3L1078.31 538.7C1087.31 545.3 1098.01 550.6 1110.41 554.6C1122.81 558.6 1135.21 560.6 1147.61 560.6C1161.41 560.6 1171.61 558.6 1178.21 554.6C1184.81 550.4 1188.11 544.9 1188.11 538.1C1188.11 533.1 1186.11 529 1182.11 525.8C1178.31 522.4 1173.31 519.7 1167.11 517.7C1161.11 515.7 1152.91 513.5 1142.51 511.1C1126.51 507.3 1113.41 503.5 1103.21 499.7C1093.01 495.9 1084.21 489.8 1076.81 481.4C1069.61 473 1066.01 461.8 1066.01 447.8C1066.01 435.6 1069.31 424.6 1075.91 414.8C1082.51 404.8 1092.41 396.9 1105.61 391.1C1119.01 385.3 1135.31 382.4 1154.51 382.4C1167.91 382.4 1181.01 384 1193.81 387.2C1206.61 390.4 1217.81 395 1227.41 401L1212.41 437.9C1193.01 426.9 1173.61 421.4 1154.21 421.4C1140.61 421.4 1130.51 423.6 1123.91 428C1117.51 432.4 1114.31 438.2 1114.31 445.4C1114.31 452.6 1118.01 458 1125.41 461.6C1133.01 465 1144.51 468.4 1159.91 471.8C1175.91 475.6 1189.01 479.4 1199.21 483.2C1209.41 487 1218.11 493 1225.31 501.2C1232.71 509.4 1236.41 520.5 1236.41 534.5C1236.41 546.5 1233.01 557.5 1226.21 567.5C1219.61 577.3 1209.61 585.1 1196.21 590.9C1182.81 596.7 1166.51 599.6 1147.31 599.6ZM1442.12 434.6V596H1397.42V577.4C1385.82 591.4 1369.02 598.4 1347.02 598.4C1331.82 598.4 1318.02 595 1305.62 588.2C1293.42 581.4 1283.82 571.7 1276.82 559.1C1269.82 546.5 1266.32 531.9 1266.32 515.3C1266.32 498.7 1269.82 484.1 1276.82 471.5C1283.82 458.9 1293.42 449.2 1305.62 442.4C1318.02 435.6 1331.82 432.2 1347.02 432.2C1367.62 432.2 1383.72 438.7 1395.32 451.7V434.6H1442.12ZM1355.12 560C1366.92 560 1376.72 556 1384.52 548C1392.32 539.8 1396.22 528.9 1396.22 515.3C1396.22 501.7 1392.32 490.9 1384.52 482.9C1376.72 474.7 1366.92 470.6 1355.12 470.6C1343.12 470.6 1333.22 474.7 1325.42 482.9C1317.62 490.9 1313.72 501.7 1313.72 515.3C1313.72 528.9 1317.62 539.8 1325.42 548C1333.22 556 1343.12 560 1355.12 560ZM1594.65 588.2C1590.05 591.6 1584.35 594.2 1577.55 596C1570.95 597.6 1564.05 598.4 1556.85 598.4C1537.45 598.4 1522.55 593.5 1512.15 583.7C1501.75 573.9 1496.55 559.5 1496.55 540.5V398.9H1543.35V438.2H1583.25V474.2H1543.35V539.9C1543.35 546.7 1545.05 552 1548.45 555.8C1551.85 559.4 1556.75 561.2 1563.15 561.2C1570.35 561.2 1576.75 559.2 1582.35 555.2L1594.65 588.2ZM1790.35 434.6L1722.25 596H1673.95L1606.15 434.6H1654.45L1699.15 544.4L1745.35 434.6H1790.35ZM1980.86 434.6V596H1936.16V577.4C1924.56 591.4 1907.76 598.4 1885.76 598.4C1870.56 598.4 1856.76 595 1844.36 588.2C1832.16 581.4 1822.56 571.7 1815.56 559.1C1808.56 546.5 1805.06 531.9 1805.06 515.3C1805.06 498.7 1808.56 484.1 1815.56 471.5C1822.56 458.9 1832.16 449.2 1844.36 442.4C1856.76 435.6 1870.56 432.2 1885.76 432.2C1906.36 432.2 1922.46 438.7 1934.06 451.7V434.6H1980.86ZM1893.86 560C1905.66 560 1915.46 556 1923.26 548C1931.06 539.8 1934.96 528.9 1934.96 515.3C1934.96 501.7 1931.06 490.9 1923.26 482.9C1915.46 474.7 1905.66 470.6 1893.86 470.6C1881.86 470.6 1871.96 474.7 1864.16 482.9C1856.36 490.9 1852.46 501.7 1852.46 515.3C1852.46 528.9 1856.36 539.8 1864.16 548C1871.96 556 1881.86 560 1893.86 560Z" fill="#2F2F2F"/>
<defs>
<radialGradient id="paint0_radial_506_10" cx="0" cy="0" r="1" gradientUnits="userSpaceOnUse" gradientTransform="translate(483 483) rotate(-90) scale(483 417.013)">
<stop stop-color="#8B9EED"/>
<stop offset="1" stop-color="#8B9EED" stop-opacity="0"/>
</radialGradient>
<radialGradient id="paint1_radial_506_10" cx="0" cy="0" r="1" gradientUnits="userSpaceOnUse" gradientTransform="translate(483 483) rotate(90) scale(114)">
<stop stop-color="#FEE3C5"/>
<stop offset="1" stop-color="#FEE4C7" stop-opacity="0"/>
</radialGradient>
</defs>
</svg>
