<svg width="1925" height="966" viewBox="0 0 1925 966" fill="none" xmlns="http://www.w3.org/2000/svg">
<circle cx="483.5" cy="483.5" r="184.5" fill="black"/>
<circle cx="483" cy="483" r="483" fill="url(#paint0_radial_438_2)"/>
<circle cx="483" cy="483" r="114" fill="url(#paint1_radial_438_2)"/>
<path d="M1069.31 593.6C1052.71 593.6 1036.61 591.4 1021.01 587C1005.61 582.4 993.214 576.5 983.814 569.3L1000.31 532.7C1009.31 539.3 1020.01 544.6 1032.41 548.6C1044.81 552.6 1057.21 554.6 1069.61 554.6C1083.41 554.6 1093.61 552.6 1100.21 548.6C1106.81 544.4 1110.11 538.9 1110.11 532.1C1110.11 527.1 1108.11 523 1104.11 519.8C1100.31 516.4 1095.31 513.7 1089.11 511.7C1083.11 509.7 1074.91 507.5 1064.51 505.1C1048.51 501.3 1035.41 497.5 1025.21 493.7C1015.01 489.9 1006.21 483.8 998.814 475.4C991.614 467 988.014 455.8 988.014 441.8C988.014 429.6 991.314 418.6 997.914 408.8C1004.51 398.8 1014.41 390.9 1027.61 385.1C1041.01 379.3 1057.31 376.4 1076.51 376.4C1089.91 376.4 1103.01 378 1115.81 381.2C1128.61 384.4 1139.81 389 1149.41 395L1134.41 431.9C1115.01 420.9 1095.61 415.4 1076.21 415.4C1062.61 415.4 1052.51 417.6 1045.91 422C1039.51 426.4 1036.31 432.2 1036.31 439.4C1036.31 446.6 1040.01 452 1047.41 455.6C1055.01 459 1066.51 462.4 1081.91 465.8C1097.91 469.6 1111.01 473.4 1121.21 477.2C1131.41 481 1140.11 487 1147.31 495.2C1154.71 503.4 1158.41 514.5 1158.41 528.5C1158.41 540.5 1155.01 551.5 1148.21 561.5C1141.61 571.3 1131.61 579.1 1118.21 584.9C1104.81 590.7 1088.51 593.6 1069.31 593.6ZM1364.12 428.6V590H1319.42V571.4C1307.82 585.4 1291.02 592.4 1269.02 592.4C1253.82 592.4 1240.02 589 1227.62 582.2C1215.42 575.4 1205.82 565.7 1198.82 553.1C1191.82 540.5 1188.32 525.9 1188.32 509.3C1188.32 492.7 1191.82 478.1 1198.82 465.5C1205.82 452.9 1215.42 443.2 1227.62 436.4C1240.02 429.6 1253.82 426.2 1269.02 426.2C1289.62 426.2 1305.72 432.7 1317.32 445.7V428.6H1364.12ZM1277.12 554C1288.92 554 1298.72 550 1306.52 542C1314.32 533.8 1318.22 522.9 1318.22 509.3C1318.22 495.7 1314.32 484.9 1306.52 476.9C1298.72 468.7 1288.92 464.6 1277.12 464.6C1265.12 464.6 1255.22 468.7 1247.42 476.9C1239.62 484.9 1235.72 495.7 1235.72 509.3C1235.72 522.9 1239.62 533.8 1247.42 542C1255.22 550 1265.12 554 1277.12 554ZM1516.65 582.2C1512.05 585.6 1506.35 588.2 1499.55 590C1492.95 591.6 1486.05 592.4 1478.85 592.4C1459.45 592.4 1444.55 587.5 1434.15 577.7C1423.75 567.9 1418.55 553.5 1418.55 534.5V392.9H1465.35V432.2H1505.25V468.2H1465.35V533.9C1465.35 540.7 1467.05 546 1470.45 549.8C1473.85 553.4 1478.75 555.2 1485.15 555.2C1492.35 555.2 1498.75 553.2 1504.35 549.2L1516.65 582.2ZM1712.35 428.6L1644.25 590H1595.95L1528.15 428.6H1576.45L1621.15 538.4L1667.35 428.6H1712.35ZM1902.86 428.6V590H1858.16V571.4C1846.56 585.4 1829.76 592.4 1807.76 592.4C1792.56 592.4 1778.76 589 1766.36 582.2C1754.16 575.4 1744.56 565.7 1737.56 553.1C1730.56 540.5 1727.06 525.9 1727.06 509.3C1727.06 492.7 1730.56 478.1 1737.56 465.5C1744.56 452.9 1754.16 443.2 1766.36 436.4C1778.76 429.6 1792.56 426.2 1807.76 426.2C1828.36 426.2 1844.46 432.7 1856.06 445.7V428.6H1902.86ZM1815.86 554C1827.66 554 1837.46 550 1845.26 542C1853.06 533.8 1856.96 522.9 1856.96 509.3C1856.96 495.7 1853.06 484.9 1845.26 476.9C1837.46 468.7 1827.66 464.6 1815.86 464.6C1803.86 464.6 1793.96 468.7 1786.16 476.9C1778.36 484.9 1774.46 495.7 1774.46 509.3C1774.46 522.9 1778.36 533.8 1786.16 542C1793.96 550 1803.86 554 1815.86 554Z" fill="#987D60"/>
<defs>
<radialGradient id="paint0_radial_438_2" cx="0" cy="0" r="1" gradientUnits="userSpaceOnUse" gradientTransform="translate(483 483) rotate(-90) scale(483 417.013)">
<stop stop-color="#FEC07F"/>
<stop offset="1" stop-color="#FEC07F" stop-opacity="0"/>
</radialGradient>
<radialGradient id="paint1_radial_438_2" cx="0" cy="0" r="1" gradientUnits="userSpaceOnUse" gradientTransform="translate(483 483) rotate(90) scale(114)">
<stop stop-color="#FBE1C7"/>
<stop offset="1" stop-color="#FEE4C7" stop-opacity="0"/>
</radialGradient>
</defs>
</svg>
